# xmcd
#
# Track frame offsets:
#	150
#	9355
#	16449
#	30715
#	40340
#	48842
#	58666
#	74274
#	84199
#	88074
#	100338
#	112536
#	134048
#	138262
#	149128
#
# Disc length: 2069 seconds
#
# Revision: 1
# Processed by: cddbd v1.5.2PL0 Copyright (c) Steve Scherf et al.
# Submitted via: audiograbber 1.83.01
#
DISCID=c808130f
DTITLE=The Fellingham Family - Sounds of the Country
DYEAR=1995
DGENRE=Country
TTITLE0=Cripple Creek/Bile 'Em Cabbage
TTITLE1=Earl's Breakdown
TTITLE2=Daddy's Hands
TTITLE3=Dueling Banjos
TTITLE4=Clarinet Polka
TTITLE5=Country Dancin' Girl
TTITLE6=The Rose Says "I Love You"
TTITLE7=Except for Monday
TTITLE8=Fiddlin' Around
TTITLE9=I'll See You Tonight
TTITLE10=K-Mart Cowboy
TTITLE11=All That's Jazz Medley
TTITLE12=Theme Time
TTITLE13=Could I Have This Dance
TTITLE14=Foggy Mountain Breakdown
EXTD=
EXTT0=
EXTT1=
EXTT2=
EXTT3=
EXTT4=
EXTT5=
EXTT6=
EXTT7=
EXTT8=
EXTT9=
EXTT10=
EXTT11=
EXTT12=
EXTT13=
EXTT14=
PLAYORDER=
